<svg id="e4Xr2tP63Cp1" xmlns="http://www.w3.org/2000/svg" xmlns:xlink="http://www.w3.org/1999/xlink" viewBox="0 0 194.600000 267" shape-rendering="geometricPrecision" text-rendering="geometricPrecision"><style><![CDATA[#e4Xr2tP63Cp9_to {animation: e4Xr2tP63Cp9_to__to 5700ms linear infinite normal forwards}@keyframes e4Xr2tP63Cp9_to__to { 0% {transform: translate(97.483994px,107.700000px)} 52.631579% {transform: translate(97.483994px,107.700000px)} 56.140351% {transform: translate(97.483994px,105px)} 77.192982% {transform: translate(97.483994px,105px)} 80.701754% {transform: translate(97.483994px,107.700000px)} 100% {transform: translate(97.483994px,107.700000px)}} #e4Xr2tP63Cp9_tr {animation: e4Xr2tP63Cp9_tr__tr 5700ms linear infinite normal forwards}@keyframes e4Xr2tP63Cp9_tr__tr { 0% {transform: rotate(0deg);animation-timing-function: cubic-bezier(0.420000,0,0.580000,1)} 10.526316% {transform: rotate(-20deg);animation-timing-function: cubic-bezier(0.420000,0,0.580000,1)} 21.052632% {transform: rotate(20deg);animation-timing-function: cubic-bezier(0.420000,0,0.580000,1)} 31.578947% {transform: rotate(0deg)} 100% {transform: rotate(0deg)}} #e4Xr2tP63Cp10_tr {animation: e4Xr2tP63Cp10_tr__tr 5700ms linear infinite normal forwards}@keyframes e4Xr2tP63Cp10_tr__tr { 0% {transform: translate(131.525543px,41.800000px) rotate(0deg)} 52.631579% {transform: translate(131.525543px,41.800000px) rotate(0deg)} 56.140351% {transform: translate(131.525543px,41.800000px) rotate(-8deg)} 77.192982% {transform: translate(131.525543px,41.800000px) rotate(-5deg)} 84.210526% {transform: translate(131.525543px,41.800000px) rotate(0deg)} 100% {transform: translate(131.525543px,41.800000px) rotate(0deg)}} #e4Xr2tP63Cp19_tr {animation: e4Xr2tP63Cp19_tr__tr 5700ms linear infinite normal forwards}@keyframes e4Xr2tP63Cp19_tr__tr { 0% {transform: translate(63.174484px,41.800000px) rotate(0deg)} 52.631579% {transform: translate(63.174484px,41.800000px) rotate(0deg)} 56.140351% {transform: translate(63.174484px,41.800000px) rotate(8deg)} 77.192982% {transform: translate(63.174484px,41.800000px) rotate(5deg)} 84.210526% {transform: translate(63.174484px,41.800000px) rotate(0deg)} 100% {transform: translate(63.174484px,41.800000px) rotate(0deg)}} #e4Xr2tP63Cp32_to {animation: e4Xr2tP63Cp32_to__to 5700ms linear infinite normal forwards}@keyframes e4Xr2tP63Cp32_to__to { 0% {transform: translate(97.299999px,104.699997px)} 52.631579% {transform: translate(97.299999px,104.699997px)} 56.140351% {transform: translate(97.299999px,102px)} 77.192982% {transform: translate(97.299999px,102px)} 80.701754% {transform: translate(97.299999px,104.699997px)} 100% {transform: translate(97.299999px,104.699997px)}} #e4Xr2tP63Cp33 {animation: e4Xr2tP63Cp33_c_o 5700ms linear infinite normal forwards}@keyframes e4Xr2tP63Cp33_c_o { 0% {opacity: 0} 52.631579% {opacity: 0} 56.140351% {opacity: 1} 77.192982% {opacity: 1} 80.701754% {opacity: 0} 100% {opacity: 0}} #e4Xr2tP63Cp44_ts {animation: e4Xr2tP63Cp44_ts__ts 5700ms linear infinite normal forwards}@keyframes e4Xr2tP63Cp44_ts__ts { 0% {transform: translate(97.349998px,75.900005px) scale(1,1)} 28.070175% {transform: translate(97.349998px,75.900005px) scale(1,1);animation-timing-function: cubic-bezier(0.420000,0,1,1)} 31.578947% {transform: translate(97.349998px,75.900005px) scale(1,0.164020);animation-timing-function: cubic-bezier(0.420000,0,1,1)} 35.087719% {transform: translate(97.349998px,75.900005px) scale(1,1);animation-timing-function: cubic-bezier(0.420000,0,1,1)} 38.596491% {transform: translate(97.349998px,75.900005px) scale(1,1);animation-timing-function: cubic-bezier(0.420000,0,1,1)} 42.105263% {transform: translate(97.349998px,75.900005px) scale(1,0.164020);animation-timing-function: cubic-bezier(0.420000,0,1,1)} 45.614035% {transform: translate(97.349998px,75.900005px) scale(1,1)} 52.631579% {transform: translate(97.349998px,75.900005px) scale(1,1);animation-timing-function: cubic-bezier(0.420000,0,1,1)} 56.140351% {transform: translate(97.349998px,75.900005px) scale(1,0.164020);animation-timing-function: cubic-bezier(0.420000,0,1,1)} 77.017544% {transform: translate(97.349998px,75.900005px) scale(1,0.164020);animation-timing-function: cubic-bezier(0.420000,0,1,1)} 80.701754% {transform: translate(97.349998px,75.900005px) scale(1,1);animation-timing-function: cubic-bezier(0.420000,0,1,1)} 91.228070% {transform: translate(97.349998px,75.900005px) scale(1,1);animation-timing-function: cubic-bezier(0.420000,0,1,1)} 94.736842% {transform: translate(97.349998px,75.900005px) scale(1,0.164020);animation-timing-function: cubic-bezier(0.420000,0,1,1)} 98.245614% {transform: translate(97.349998px,75.900005px) scale(1,1)} 100% {transform: translate(97.349998px,75.900005px) scale(1,1)}} #e4Xr2tP63Cp44 {animation: e4Xr2tP63Cp44_c_o 5700ms linear infinite normal forwards}@keyframes e4Xr2tP63Cp44_c_o { 0% {opacity: 1} 52.631579% {opacity: 1} 56.140351% {opacity: 0} 77.192982% {opacity: 0} 80.701754% {opacity: 1} 100% {opacity: 1}} #e4Xr2tP63Cp53 {animation: e4Xr2tP63Cp53_c_o 5700ms linear infinite normal forwards}@keyframes e4Xr2tP63Cp53_c_o { 0% {opacity: 0} 52.631579% {opacity: 0} 56.140351% {opacity: 1} 77.192982% {opacity: 1} 80.701754% {opacity: 0} 100% {opacity: 0}}]]></style><g id="e4Xr2tP63Cp2" transform="matrix(0.94682366238769 0 0 0.94682366238769 5.11556371887472 10.16199803657216)"><ellipse id="e4Xr2tP63Cp3" rx="47.800000" ry="75.900000" transform="matrix(1 0 0 1 96.20000000000000 191.09999999999999)" fill="rgb(203,230,249)" stroke="none" stroke-width="1" stroke-miterlimit="1"/></g><g id="e4Xr2tP63Cp4" transform="matrix(0.94682366238769 0 0 0.94682366238769 5.11556351602310 7.58560504724019)"><path id="e4Xr2tP63Cp5" d="M188.400000,183.800000C188.400000,207.100000,160.900000,205.800000,152.100000,213.600000C147.400000,217.800000,147.600000,219.600000,147.600000,219.600000C145.174620,218.428858,143.103976,216.634300,141.600000,214.400000C141.130039,217.196759,141.441484,220.068979,142.500000,222.700000C129.200000,219.100000,94,197.900000,94,183.800000C94,165.400000,115.200000,153.200000,141.200000,153.200000C167.200000,153.200000,188.400000,166.900000,188.400000,183.800000Z" transform="matrix(1 0 0 1 -45 -36)" fill="rgb(72,36,64)" stroke="none" stroke-width="1" stroke-miterlimit="1"/><g id="e4Xr2tP63Cp6"><path id="e4Xr2tP63Cp7" d="M179.700000,154.500000C179.700000,143.500000,163.100000,134.600000,142.500000,134.600000C121.900000,134.600000,105.200000,143.500000,105.200000,154.500000C105.200000,165.500000,117.500000,171.900000,134,173.900000C137.300000,178.300000,139.800000,181.400000,141.600000,182.200000L143.400000,182.200000C145.200000,181.400000,147.700000,178.300000,150.900000,173.900000C167.400000,171.900000,179.700000,164,179.700000,154.500000Z" transform="matrix(1 0 0 1 -45 -36)" fill="rgb(242,199,65)" stroke="none" stroke-width="1" stroke-miterlimit="1"/><path id="e4Xr2tP63Cp8" d="M144.400000,165.600000L142.500000,165.400000L140.500000,165.600000C138,166,135.400000,167,136.400000,168.600000C140.900000,174.900000,141.700000,176.400000,142.500000,176.400000L142.500000,176.400000C143.300000,176.400000,144,174.900000,148.600000,168.600000C149.500000,167,147,166,144.400000,165.600000Z" transform="matrix(1 0 0 1 -45 -36)" fill="rgb(133,204,216)" stroke="none" stroke-width="1" stroke-miterlimit="1"/></g></g><g id="e4Xr2tP63Cp9_to" transform="translate(97.483994,107.700000)"><g id="e4Xr2tP63Cp9_tr" transform="rotate(0)"><g id="e4Xr2tP63Cp9" transform="scale(0.946824,0.946824) translate(-97.483994,-107.700000)"><g id="e4Xr2tP63Cp10_tr" transform="translate(131.525543,41.800000) rotate(0)"><g id="e4Xr2tP63Cp10" transform="translate(-131.525543,-41.800000)"><g id="e4Xr2tP63Cp11"><path id="e4Xr2tP63Cp12" d="M178.800000,90.900000C178.800000,90.900000,170.500000,77.600000,183.600000,72.100000C196.700000,66.600000,206.800000,62.900000,211.300000,60.500000C215.800000,58.100000,219.800000,54.800000,222,56.700000C224.200000,58.600000,224.800000,70.700000,222.600000,82C221.200000,89.300000,218.800000,97.100000,210,105.100000C201.200000,113.100000,193.600000,110,193.600000,110C193.600000,110,181.900000,105.700000,178.800000,90.900000Z" transform="matrix(1 0 0 1 -45 -36)" fill="rgb(185,77,107)" stroke="none" stroke-width="1" stroke-miterlimit="1"/><g id="e4Xr2tP63Cp13" clip-path="url(#e4Xr2tP63Cp17)"><g id="e4Xr2tP63Cp14"><path id="e4Xr2tP63Cp15" d="M188.700000,81.100000C188.700000,81.100000,197.200000,77.800000,203.300000,77.800000C209.400000,77.800000,212.900000,79.700000,210,84C207.100000,88.300000,201.100000,90.100000,201.100000,90.100000C201.100000,90.100000,204,92.600000,204,94.700000C204,96.800000,201.200000,98.200000,197.700000,98.200000C195.646104,98.209363,193.598385,97.974379,191.600000,97.500000C184.700000,95.800000,181.400000,92.500000,181.600000,87.700000Z" transform="matrix(1 0 0 1 -45 -36)" fill="rgb(122,135,194)" stroke="none" stroke-width="1" stroke-miterlimit="1"/><path id="e4Xr2tP63Cp16" d="M178.400000,95.700000C195.600000,71.600000,201.900000,86,216.300000,57.600000L221.400000,48.600000L239.600000,57.300000L234.600000,48.600000L219,46.200000L197.600000,52.300000L177.500000,66.700000L165.900000,80.600000Z" transform="matrix(1 0 0 1 -45 -36)" fill="rgb(203,230,249)" stroke="none" stroke-width="1" stroke-miterlimit="1"/></g><clipPath id="e4Xr2tP63Cp17" transform="matrix(1 0 0 1 -45 -36)"><path id="e4Xr2tP63Cp18" d="M178.800000,90.900000C178.800000,90.900000,170.500000,77.600000,183.600000,72.100000C196.700000,66.600000,206.800000,62.900000,211.300000,60.500000C215.800000,58.100000,219.800000,54.800000,222,56.700000C224.200000,58.600000,224.800000,70.700000,222.600000,82C221.200000,89.300000,218.800000,97.100000,210,105.100000C201.200000,113.100000,193.600000,110,193.600000,110C193.600000,110,181.900000,105.700000,178.800000,90.900000Z" fill="rgb(185,77,107)" stroke="none" stroke-width="1" stroke-miterlimit="1"/></clipPath></g></g></g></g><g id="e4Xr2tP63Cp19_tr" transform="translate(63.174484,41.800000) rotate(0)"><g id="e4Xr2tP63Cp19" transform="translate(-63.174484,-41.800000)"><g id="e4Xr2tP63Cp20"><path id="e4Xr2tP63Cp21" d="M105.900000,90.900000C105.900000,90.900000,114.200000,77.600000,101.100000,72.100000C88,66.600000,77.900000,62.900000,73.400000,60.500000C68.900000,58.100000,64.900000,54.800000,62.600000,56.700000C60.300000,58.600000,59.900000,70.700000,62.100000,82C63.500000,89.300000,65.900000,97.100000,74.600000,105.100000C83.300000,113.100000,91.100000,110,91.100000,110C91.100000,110,102.700000,105.700000,105.900000,90.900000Z" transform="matrix(1 0 0 1 -45 -36)" fill="rgb(185,77,107)" stroke="none" stroke-width="1" stroke-miterlimit="1"/><g id="e4Xr2tP63Cp22" clip-path="url(#e4Xr2tP63Cp26)"><g id="e4Xr2tP63Cp23"><path id="e4Xr2tP63Cp24" d="M96,81.100000C96,81.100000,87.400000,77.800000,81.300000,77.800000C75.200000,77.800000,71.700000,79.700000,74.600000,84C77.500000,88.300000,83.600000,90.100000,83.600000,90.100000C83.600000,90.100000,80.600000,92.600000,80.600000,94.700000C80.600000,96.800000,83.500000,98.200000,86.900000,98.200000C88.986578,98.203501,91.066728,97.968645,93.100000,97.500000C100,95.800000,103.200000,92.500000,103.100000,87.700000Z" transform="matrix(1 0 0 1 -45 -36)" fill="rgb(122,135,194)" stroke="none" stroke-width="1" stroke-miterlimit="1"/><path id="e4Xr2tP63Cp25" d="M106.300000,95.700000C89,71.600000,82.800000,86,68.400000,57.600000L63.300000,48.600000L45,57.300000L50,48.600000L65.700000,46.200000L87.100000,52.300000L107.200000,66.700000L118.800000,80.600000Z" transform="matrix(1 0 0 1 -45 -36)" fill="rgb(203,230,249)" stroke="none" stroke-width="1" stroke-miterlimit="1"/></g><clipPath id="e4Xr2tP63Cp26" transform="matrix(1 0 0 1 -45 -36)"><path id="e4Xr2tP63Cp27" d="M105.900000,90.900000C105.900000,90.900000,114.200000,77.600000,101.100000,72.100000C88,66.600000,77.900000,62.900000,73.400000,60.500000C68.900000,58.100000,64.900000,54.800000,62.600000,56.700000C60.300000,58.600000,59.900000,70.700000,62.100000,82C63.500000,89.300000,65.900000,97.100000,74.600000,105.100000C83.300000,113.100000,91.100000,110,91.100000,110C91.100000,110,102.700000,105.700000,105.900000,90.900000Z" fill="rgb(185,77,107)" stroke="none" stroke-width="1" stroke-miterlimit="1"/></clipPath></g></g></g></g><g id="e4Xr2tP63Cp28"><path id="e4Xr2tP63Cp29" d="M142.300000,163.500000C173,162.100000,199.700000,150.100000,223.100000,129.400000C213.200000,120.600000,187,63.100000,142.300000,68.600000C97.700000,63.100000,71.500000,120.600000,61.600000,129.400000C85,150.100000,111.600000,162.100000,142.300000,163.500000Z" transform="matrix(1 0 0 1 -45 -36)" fill="rgb(203,230,249)" stroke="none" stroke-width="1" stroke-miterlimit="1"/><path id="e4Xr2tP63Cp30" d="M165.100000,53.600000C162.689513,53.964842,160.314327,54.533548,158,55.300000C154.903861,56.195056,152.172358,58.051078,150.200000,60.600000C148.227642,63.148922,151.500000,56.600000,149.600000,49.100000C148.192274,44.257106,145.733901,39.784233,142.400000,36C142.384058,36.137088,142.350445,36.271538,142.300000,36.400000L142.300000,36C138.956491,39.793418,136.466985,44.260886,135,49.100000C133.100000,56.600000,134.500000,60.600000,134.500000,60.600000C132.500130,58.080524,129.778893,56.231479,126.700000,55.300000C124.354115,54.524639,121.944947,53.955808,119.500000,53.600000C119.546564,57.164614,120.119413,60.702800,121.200000,64.100000C122.700000,69.100000,127.200000,72.600000,129,73.700000C130.800000,74.800000,136.400000,78.800000,141.600000,79.200000L143,79.200000C148.300000,78.800000,153.800000,74.900000,155.600000,73.700000C157.400000,72.500000,161.900000,69.100000,163.500000,64.100000C164.580095,60.705429,165.120015,57.162206,165.100000,53.600000Z" transform="matrix(1 0 0 1 -45 -36)" fill="rgb(244,199,64)" stroke="none" stroke-width="1" stroke-miterlimit="1"/><path id="e4Xr2tP63Cp31" d="M145.300000,123C144.456404,122.710663,143.585077,122.509587,142.700000,122.400000L142,122.400000C141.083636,122.517530,140.179895,122.718361,139.300000,123C136.800000,123.700000,136.300000,125.700000,136.700000,126.600000C137.100000,127.500000,142.300000,130.300000,142.300000,130.300000L142.400000,130.300000C142.400000,130.300000,147.600000,127.500000,148,126.600000C148.400000,125.700000,147.800000,123.700000,145.300000,123Z" transform="matrix(1 0 0 1 -45 -36)" fill="rgb(185,77,107)" stroke="none" stroke-width="1" stroke-miterlimit="1"/></g><g id="e4Xr2tP63Cp32_to" transform="translate(97.299999,104.699997)"><g id="e4Xr2tP63Cp32" transform="translate(-97.299999,-104.699997)"><g id="e4Xr2tP63Cp33" opacity="0" mask="url(#e4Xr2tP63Cp35)"><path id="e4Xr2tP63Cp34" d="M80.600000,104.700000L85.300000,107.700000L90,107.700000L97.350000,103.100000L104.600000,107.700000L110.600000,107.700000L116.700000,101.700000L133.800000,101.700000L145.300000,147.800000L46.100000,147.800000L60.200000,101.700000L77.900000,101.989398L80.600000,104.700000Z" fill="rgb(185,77,107)" stroke="none" stroke-width="0.534000" stroke-miterlimit="1"/><mask id="e4Xr2tP63Cp35" mask-type="alpha"><ellipse id="e4Xr2tP63Cp36" rx="14.129135" ry="13.296357" transform="matrix(0.90797042081521 0 0 1.13910412940904 97.30000000000003 107.43763568999991)" fill="rgb(185,77,107)" stroke="none" stroke-width="0" stroke-miterlimit="1"/></mask></g><path id="e4Xr2tP63Cp37" d="M122.900000,137.700000C122.900000,137.700000,125.900000,143.700000,132.700000,143.700000C136.753395,143.680908,140.441005,141.351891,142.200000,137.700000L142.500000,137.700000C144.243083,141.319777,147.882802,143.643002,151.900000,143.700000C156.015642,143.634160,159.769934,141.335614,161.700000,137.700000" transform="matrix(1 0 0 1 -45 -36)" fill="none" stroke="rgb(122,135,194)" stroke-width="4" stroke-linecap="round" stroke-linejoin="round" stroke-miterlimit="1"/></g></g><g id="e4Xr2tP63Cp38"><path id="e4Xr2tP63Cp39" d="M230.400000,152.200000C230.400000,151,233.400000,151.600000,233.900000,155C234.500000,160.100000,225.400000,167.300000,214.700000,155.900000C204,144.500000,195.500000,139.400000,190.300000,139.100000" transform="matrix(1 0 0 1 -45 -36)" fill="none" stroke="rgb(244,199,64)" stroke-width="5" stroke-linecap="round" stroke-miterlimit="1"/><path id="e4Xr2tP63Cp40" d="M205,131.400000C208.559900,132.836373,211.791655,134.979536,214.500000,137.700000C218.600000,142.100000,223,145.400000,227.900000,144.400000C232.800000,143.400000,231.800000,139.800000,230.100000,139.700000" transform="matrix(1 0 0 1 -45 -36)" fill="none" stroke="rgb(244,199,64)" stroke-width="4" stroke-linecap="round" stroke-miterlimit="1"/></g><g id="e4Xr2tP63Cp41"><path id="e4Xr2tP63Cp42" d="M54.300000,152.200000C54.300000,151,51.200000,151.600000,50.800000,155C50.100000,160.100000,59.200000,167.300000,69.900000,155.900000C80.600000,144.500000,89.200000,139.400000,94.400000,139.100000" transform="matrix(1 0 0 1 -45 -36)" fill="none" stroke="rgb(244,199,64)" stroke-width="5" stroke-linecap="round" stroke-miterlimit="1"/><path id="e4Xr2tP63Cp43" d="M79.600000,131.400000C76.077070,132.850593,72.880744,134.992812,70.200000,137.700000C66.100000,142.100000,61.700000,145.400000,56.700000,144.400000C51.700000,143.400000,52.900000,139.800000,54.500000,139.700000" transform="matrix(1 0 0 1 -45 -36)" fill="none" stroke="rgb(244,199,64)" stroke-width="4" stroke-linecap="round" stroke-miterlimit="1"/></g><g id="e4Xr2tP63Cp44_ts" transform="translate(97.349998,75.900005) scale(1,1)"><g id="e4Xr2tP63Cp44" transform="translate(-97.349998,-75.900005)"><g id="e4Xr2tP63Cp45"><ellipse id="e4Xr2tP63Cp46" rx="5.400000" ry="6.700000" transform="matrix(1 0 0 1 119.50000000000000 75.90000000000001)" fill="rgb(72,36,64)" stroke="none" stroke-width="1" stroke-miterlimit="1"/></g><g id="e4Xr2tP63Cp47"><ellipse id="e4Xr2tP63Cp48" rx="5.400000" ry="6.700000" transform="matrix(1 0 0 1 75.20000000000000 75.90000000000001)" fill="rgb(72,36,64)" stroke="none" stroke-width="1" stroke-miterlimit="1"/></g></g></g><g id="e4Xr2tP63Cp49"><path id="e4Xr2tP63Cp50" d="M154.400000,97.500000C157.252063,93.812581,161.638467,91.637809,166.300000,91.600000C174.100000,91.600000,175.400000,96.300000,182.200000,96.300000C186.500000,96.300000,187.900000,94.600000,187.900000,94.600000" transform="matrix(1 0 0 1 -45 -36)" fill="none" stroke="rgb(244,199,64)" stroke-width="6" stroke-linecap="round" stroke-miterlimit="1"/></g><g id="e4Xr2tP63Cp51"><path id="e4Xr2tP63Cp52" d="M130.300000,97.500000C127.447937,93.812581,123.061533,91.637809,118.400000,91.600000C110.600000,91.600000,109.300000,96.300000,102.500000,96.300000C98.200000,96.300000,96.700000,94.600000,96.700000,94.600000" transform="matrix(1 0 0 1 -45 -36)" fill="none" stroke="rgb(244,199,64)" stroke-width="6" stroke-linecap="round" stroke-miterlimit="1"/></g><g id="e4Xr2tP63Cp53" transform="matrix(1 0 0 1 -0.05000229000002 0)" opacity="0"><path id="e4Xr2tP63Cp54" d="M68.160218,89.297034C72.921788,82.352893,79.270496,82.744905,83.766680,89.297034" transform="matrix(1 0 0 1 -0.76344940500003 -9.64521790499991)" fill="none" stroke="rgb(72,36,64)" stroke-width="4" stroke-linecap="round" stroke-linejoin="round" stroke-miterlimit="1"/><path id="e4Xr2tP63Cp55" d="M68.160218,89.297034C72.921788,82.352893,79.270496,82.744905,83.766680,89.297034" transform="matrix(-1 0 0 1 195.46344940500006 -9.64521790499991)" fill="none" stroke="rgb(72,36,64)" stroke-width="4" stroke-linecap="round" stroke-linejoin="round" stroke-miterlimit="1"/></g></g></g></g></svg>